<svg width="56" height="39" viewBox="0 0 56 39" fill="none" xmlns="http://www.w3.org/2000/svg">
<path fill-rule="evenodd" clip-rule="evenodd" d="M16.171 1.54324C17.0253 1.0472 18.0284 0.666902 19.1748 0.396834C20.3267 0.132278 21.5834 0 22.9282 0C24.2069 0 25.4194 0.132278 26.5934 0.396834C27.7398 0.672414 28.7429 1.03618 29.5972 1.5212C30.4515 1.9952 31.1239 2.55738 31.62 3.19672C32.1215 3.83055 32.3696 4.50848 32.3696 5.21947V34.8002C32.3696 35.3734 32.1767 35.908 31.8074 36.4206L30.4515 37.7544C29.9224 38.1292 29.3437 38.4213 28.7209 38.6528C28.0981 38.8843 27.5249 39 26.9902 39V5.21947L26.6761 4.2329L25.7942 3.33451L24.5155 2.66761C24.036 2.49124 23.5124 2.40305 22.9447 2.40305C22.377 2.40305 21.8479 2.49124 21.3739 2.66761L20.0952 3.33451L19.2189 4.2329L18.8992 5.21947V34.8002C18.8992 35.3734 18.7118 35.908 18.3371 36.4206L16.9867 37.7544C16.4466 38.1292 15.8624 38.4213 15.223 38.6528C14.5892 38.8843 13.9994 39 13.4648 39V5.21947L13.1506 4.2329L12.2688 3.33451L10.9901 2.66761C10.5106 2.49124 9.987 2.40305 9.4193 2.40305C8.85161 2.40305 8.32801 2.49124 7.8485 2.66761L6.56981 3.33451L5.69347 4.2329L5.3738 5.21947V34.8002C5.3738 35.3734 5.1864 35.908 4.81162 36.4206L3.46128 37.7544C2.92665 38.1292 2.34794 38.4213 1.73064 38.6528C1.10783 38.8843 0.529112 39 0 39V5.21947C0 4.50848 0.248021 3.83055 0.744064 3.19672C1.24011 2.55738 1.91803 1.9952 2.76131 1.5212C3.6156 1.03618 4.60218 0.666902 5.73756 0.396834C6.87846 0.132278 8.10755 0 9.41379 0C10.7586 0 12.0153 0.132278 13.1672 0.396834C14.3191 0.666902 15.3222 1.0472 16.171 1.54324ZM54.5317 27.0509C54.923 27.9548 55.1159 28.8862 55.1159 29.8453V33.8467C55.1159 34.5521 54.8679 35.2135 54.3718 35.8363C53.8703 36.4592 53.1979 37.0048 52.3436 37.4898C51.4893 37.9638 50.4972 38.3386 49.3673 38.6032C48.2319 38.8677 47.0083 39 45.6966 39C44.3848 39 43.1612 38.8677 42.0204 38.6032C40.8905 38.3386 39.8929 37.9638 39.0441 37.4898C38.1843 37.0048 37.5174 36.4592 37.0158 35.8363C36.5198 35.2135 36.2718 34.5521 36.2718 33.8467V29.8508C36.2718 29.2831 36.4592 28.754 36.8339 28.2524L38.1843 26.9241C38.7134 26.5273 39.2921 26.2241 39.9149 25.9871C40.5377 25.7612 41.1164 25.6454 41.6456 25.6454V33.8522L41.9597 34.8057L42.8416 35.6875L44.1203 36.3489C44.5998 36.5253 45.1234 36.6135 45.6911 36.6135C46.2588 36.6135 46.7879 36.5253 47.2619 36.3489L48.5406 35.6875L49.4224 34.8057L49.7366 33.8522V29.8563C49.7366 29.0075 49.4775 28.1256 48.965 27.2217C48.4469 26.3233 47.8241 25.425 47.0745 24.5376C46.3304 23.6502 45.5257 22.7794 44.6769 21.9306C43.8226 21.0763 43.0676 20.2826 42.3951 19.5331C41.7503 18.7559 41.0668 17.9568 40.3448 17.141C39.6173 16.3253 38.9504 15.4821 38.3496 14.6112C37.7489 13.7404 37.2473 12.853 36.8615 11.9491C36.4702 11.0452 36.2773 10.1138 36.2773 9.15475V5.21947C36.2773 4.50297 36.5253 3.83055 37.0213 3.19672C37.5229 2.55738 38.1953 2.00071 39.0496 1.5212C39.9039 1.03618 40.896 0.666902 42.0259 0.396834C43.1668 0.132278 44.3958 0 45.7021 0C47.0083 0 48.2319 0.132278 49.3783 0.396834C50.5082 0.672414 51.5058 1.03618 52.3546 1.5212C53.2144 1.9952 53.8813 2.55738 54.3828 3.19672C54.8789 3.83055 55.1269 4.50848 55.1269 5.21947V9.14924C55.1269 9.71142 54.9395 10.2571 54.5647 10.7696L53.2144 12.1034C52.6853 12.4727 52.1066 12.7704 51.4837 13.0018C50.8609 13.2388 50.2822 13.3546 49.7531 13.3546V5.21947L49.4389 4.2329L48.5571 3.33451L47.2784 2.66761C46.7989 2.49124 46.2753 2.40305 45.7076 2.40305C45.1399 2.40305 44.6163 2.49124 44.1368 2.66761L42.8581 3.33451L41.9763 4.2329L41.6621 5.21947V9.14373C41.6621 9.99251 41.9101 10.8744 42.4117 11.7783C42.9077 12.6822 43.5195 13.575 44.2691 14.4624C45.0076 15.3498 45.8123 16.2206 46.6611 17.0694C47.5099 17.9182 48.2705 18.7394 48.9484 19.5165C49.6263 20.2661 50.3263 21.0432 51.0483 21.859C51.7759 22.6802 52.4428 23.5179 53.0435 24.3888C53.6443 25.2596 54.1403 26.147 54.5317 27.0509Z" fill="#502050"/>
</svg>
